<svg id="visual" viewBox="0 0 540 960" width="540" height="960" xmlns="http://www.w3.org/2000/svg" xmlns:xlink="http://www.w3.org/1999/xlink" version="1.1"><path d="M0 241L11.3 241C22.7 241 45.3 241 67.8 231.3C90.3 221.7 112.7 202.3 135.2 191.2C157.7 180 180.3 177 202.8 181.8C225.3 186.7 247.7 199.3 270.2 204.2C292.7 209 315.3 206 337.8 206C360.3 206 382.7 209 405.2 201C427.7 193 450.3 174 472.8 178.8C495.3 183.7 517.7 212.3 528.8 226.7L540 241L540 0L528.8 0C517.7 0 495.3 0 472.8 0C450.3 0 427.7 0 405.2 0C382.7 0 360.3 0 337.8 0C315.3 0 292.7 0 270.2 0C247.7 0 225.3 0 202.8 0C180.3 0 157.7 0 135.2 0C112.7 0 90.3 0 67.8 0C45.3 0 22.7 0 11.3 0L0 0Z" fill="#110b1d"></path><path d="M0 385L11.3 388.2C22.7 391.3 45.3 397.7 67.8 388C90.3 378.3 112.7 352.7 135.2 341.5C157.7 330.3 180.3 333.7 202.8 343.3C225.3 353 247.7 369 270.2 364.2C292.7 359.3 315.3 333.7 337.8 330.5C360.3 327.3 382.7 346.7 405.2 346.7C427.7 346.7 450.3 327.3 472.8 327.3C495.3 327.3 517.7 346.7 528.8 356.3L540 366L540 239L528.8 224.7C517.7 210.3 495.3 181.7 472.8 176.8C450.3 172 427.7 191 405.2 199C382.7 207 360.3 204 337.8 204C315.3 204 292.7 207 270.2 202.2C247.7 197.3 225.3 184.7 202.8 179.8C180.3 175 157.7 178 135.2 189.2C112.7 200.3 90.3 219.7 67.8 229.3C45.3 239 22.7 239 11.3 239L0 239Z" fill="#140d22"></path><path d="M0 750L11.3 750C22.7 750 45.3 750 67.8 727.5C90.3 705 112.7 660 135.2 637.5C157.7 615 180.3 615 202.8 618.3C225.3 621.7 247.7 628.3 270.2 641.2C292.7 654 315.3 673 337.8 666.5C360.3 660 382.7 628 405.2 610.5C427.7 593 450.3 590 472.8 593.2C495.3 596.3 517.7 605.7 528.8 610.3L540 615L540 364L528.8 354.3C517.7 344.7 495.3 325.3 472.8 325.3C450.3 325.3 427.7 344.7 405.2 344.7C382.7 344.7 360.3 325.3 337.8 328.5C315.3 331.7 292.7 357.3 270.2 362.2C247.7 367 225.3 351 202.8 341.3C180.3 331.7 157.7 328.3 135.2 339.5C112.7 350.7 90.3 376.3 67.8 386C45.3 395.7 22.7 389.3 11.3 386.2L0 383Z" fill="#1d1734"></path><path d="M0 961L11.3 961C22.7 961 45.3 961 67.8 961C90.3 961 112.7 961 135.2 961C157.7 961 180.3 961 202.8 961C225.3 961 247.7 961 270.2 961C292.7 961 315.3 961 337.8 961C360.3 961 382.7 961 405.2 961C427.7 961 450.3 961 472.8 961C495.3 961 517.7 961 528.8 961L540 961L540 613L528.8 608.3C517.7 603.7 495.3 594.3 472.8 591.2C450.3 588 427.7 591 405.2 608.5C382.7 626 360.3 658 337.8 664.5C315.3 671 292.7 652 270.2 639.2C247.7 626.3 225.3 619.7 202.8 616.3C180.3 613 157.7 613 135.2 635.5C112.7 658 90.3 703 67.8 725.5C45.3 748 22.7 748 11.3 748L0 748Z" fill="#312654"></path></svg>