<svg id="visual" viewBox="0 0 540 960" width="540" height="960" xmlns="http://www.w3.org/2000/svg" xmlns:xlink="http://www.w3.org/1999/xlink" version="1.1"><path d="M0 241L18 265C36 289 72 337 108 354.7C144 372.3 180 359.7 216 356.5C252 353.3 288 359.7 324 342C360 324.3 396 282.7 432 263.5C468 244.3 504 247.7 522 249.3L540 251L540 0L522 0C504 0 468 0 432 0C396 0 360 0 324 0C288 0 252 0 216 0C180 0 144 0 108 0C72 0 36 0 18 0L0 0Z" fill="#0d0d12"></path><path d="M0 567L18 581.5C36 596 72 625 108 626.7C144 628.3 180 602.7 216 589.8C252 577 288 577 324 588.2C360 599.3 396 621.7 432 636C468 650.3 504 656.7 522 659.8L540 663L540 249L522 247.3C504 245.7 468 242.3 432 261.5C396 280.7 360 322.3 324 340C288 357.7 252 351.3 216 354.5C180 357.7 144 370.3 108 352.7C72 335 36 287 18 263L0 239Z" fill="#0f1015"></path><path d="M0 836L18 824.8C36 813.7 72 791.3 108 783.3C144 775.3 180 781.7 216 794.5C252 807.3 288 826.7 324 831.5C360 836.3 396 826.7 432 821.8C468 817 504 817 522 817L540 817L540 661L522 657.8C504 654.7 468 648.3 432 634C396 619.7 360 597.3 324 586.2C288 575 252 575 216 587.8C180 600.7 144 626.3 108 624.7C72 623 36 594 18 579.5L0 565Z" fill="#1a1c22"></path><path d="M0 961L18 961C36 961 72 961 108 961C144 961 180 961 216 961C252 961 288 961 324 961C360 961 396 961 432 961C468 961 504 961 522 961L540 961L540 815L522 815C504 815 468 815 432 819.8C396 824.7 360 834.3 324 829.5C288 824.7 252 805.3 216 792.5C180 779.7 144 773.3 108 781.3C72 789.3 36 811.7 18 822.8L0 834Z" fill="#2e313d"></path></svg>