<svg id="visual" viewBox="0 0 540 960" width="540" height="960" xmlns="http://www.w3.org/2000/svg" xmlns:xlink="http://www.w3.org/1999/xlink" version="1.1"><path d="M0 164L11.3 167.2C22.7 170.3 45.3 176.7 67.8 181.5C90.3 186.3 112.7 189.7 135.2 180.2C157.7 170.7 180.3 148.3 202.8 142C225.3 135.7 247.7 145.3 270.2 142.2C292.7 139 315.3 123 337.8 116.5C360.3 110 382.7 113 405.2 116.2C427.7 119.3 450.3 122.7 472.8 122.7C495.3 122.7 517.7 119.3 528.8 117.7L540 116L540 0L528.8 0C517.7 0 495.3 0 472.8 0C450.3 0 427.7 0 405.2 0C382.7 0 360.3 0 337.8 0C315.3 0 292.7 0 270.2 0C247.7 0 225.3 0 202.8 0C180.3 0 157.7 0 135.2 0C112.7 0 90.3 0 67.8 0C45.3 0 22.7 0 11.3 0L0 0Z" fill="#231441"></path><path d="M0 491L11.3 475C22.7 459 45.3 427 67.8 433.3C90.3 439.7 112.7 484.3 135.2 500.3C157.7 516.3 180.3 503.7 202.8 487.7C225.3 471.7 247.7 452.3 270.2 449C292.7 445.7 315.3 458.3 337.8 466.3C360.3 474.3 382.7 477.7 405.2 465C427.7 452.3 450.3 423.7 472.8 409.3C495.3 395 517.7 395 528.8 395L540 395L540 114L528.8 115.7C517.7 117.3 495.3 120.7 472.8 120.7C450.3 120.7 427.7 117.3 405.2 114.2C382.7 111 360.3 108 337.8 114.5C315.3 121 292.7 137 270.2 140.2C247.7 143.3 225.3 133.7 202.8 140C180.3 146.3 157.7 168.7 135.2 178.2C112.7 187.7 90.3 184.3 67.8 179.5C45.3 174.7 22.7 168.3 11.3 165.2L0 162Z" fill="#2d1650"></path><path d="M0 817L11.3 807.3C22.7 797.7 45.3 778.3 67.8 775.2C90.3 772 112.7 785 135.2 780.3C157.7 775.7 180.3 753.3 202.8 753.3C225.3 753.3 247.7 775.7 270.2 775.7C292.7 775.7 315.3 753.3 337.8 753.3C360.3 753.3 382.7 775.7 405.2 783.7C427.7 791.7 450.3 785.3 472.8 778.8C495.3 772.3 517.7 765.7 528.8 762.3L540 759L540 393L528.8 393C517.7 393 495.3 393 472.8 407.3C450.3 421.7 427.7 450.3 405.2 463C382.7 475.7 360.3 472.3 337.8 464.3C315.3 456.3 292.7 443.7 270.2 447C247.7 450.3 225.3 469.7 202.8 485.7C180.3 501.7 157.7 514.3 135.2 498.3C112.7 482.3 90.3 437.7 67.8 431.3C45.3 425 22.7 457 11.3 473L0 489Z" fill="#3e2065"></path><path d="M0 961L11.3 961C22.7 961 45.3 961 67.8 961C90.3 961 112.7 961 135.2 961C157.7 961 180.3 961 202.8 961C225.3 961 247.7 961 270.2 961C292.7 961 315.3 961 337.8 961C360.3 961 382.7 961 405.2 961C427.7 961 450.3 961 472.8 961C495.3 961 517.7 961 528.8 961L540 961L540 757L528.8 760.3C517.7 763.7 495.3 770.3 472.8 776.8C450.3 783.3 427.7 789.7 405.2 781.7C382.7 773.7 360.3 751.3 337.8 751.3C315.3 751.3 292.7 773.7 270.2 773.7C247.7 773.7 225.3 751.3 202.8 751.3C180.3 751.3 157.7 773.7 135.2 778.3C112.7 783 90.3 770 67.8 773.2C45.3 776.3 22.7 795.7 11.3 805.3L0 815Z" fill="#563481"></path></svg>